<svg width="76" height="76" viewBox="0 0 76 76" fill="none" xmlns="http://www.w3.org/2000/svg">
<rect width="76" height="76" rx="38" fill="#EEF1FB"/>
<path d="M38.3198 28.2855C38.8574 28.2855 39.373 28.0719 39.7532 27.6918C40.1333 27.3116 40.3469 26.796 40.3469 26.2584C40.3469 25.7208 40.1333 25.2052 39.7532 24.8251C39.373 24.4449 38.8574 24.2313 38.3198 24.2313C37.7822 24.2313 37.2666 24.4449 36.8865 24.8251C36.5063 25.2052 36.2927 25.7208 36.2927 26.2584C36.2927 26.796 36.5063 27.3116 36.8865 27.6918C37.2666 28.0719 37.7822 28.2855 38.3198 28.2855ZM52.9118 46.4428V33.4559H53.1356C55.3073 33.4559 56.1999 30.664 54.4245 29.4066L40.1973 19.309C39.6488 18.9193 38.9927 18.71 38.3198 18.71C37.647 18.71 36.9908 18.9193 36.4423 19.309L22.2103 29.4066C20.4398 30.664 21.3274 33.4535 23.4992 33.4535H23.7278V46.4404C22.2662 47.3791 21.2958 49.0183 21.2958 50.8836V54.1255C21.2958 54.448 21.4239 54.7573 21.652 54.9853C21.88 55.2134 22.1893 55.3415 22.5118 55.3415H54.1278C54.4503 55.3415 54.7596 55.2134 54.9877 54.9853C55.2157 54.7573 55.3438 54.448 55.3438 54.1255V50.8836C55.3438 49.0183 54.3759 47.3791 52.9118 46.4428ZM37.848 21.2935C37.9849 21.1965 38.1485 21.1445 38.3162 21.1445C38.4839 21.1445 38.6475 21.1965 38.7843 21.2935L52.4984 31.0215H24.1364L37.8504 21.2935H37.848ZM50.475 33.4535V45.6281C50.3406 45.6181 50.206 45.6132 50.0712 45.6135H45.611V33.4559H50.475V33.4535ZM26.1598 45.6281V33.4559H31.0238V45.6159H26.5635C26.4273 45.6159 26.2911 45.6208 26.1574 45.6305L26.1598 45.6281ZM26.566 48.0455H50.0761C51.6423 48.0455 52.9118 49.315 52.9118 50.8836V52.9095H23.7278V50.8836C23.7278 49.315 24.9998 48.0455 26.566 48.0455ZM37.1038 45.6135H33.4558V33.4559H37.1038V45.6159V45.6135ZM39.5358 45.6135V33.4559H43.1838V45.6159H39.5358V45.6135Z" fill="#5F6B7A"/>
</svg>
