<svg width="76" height="76" viewBox="0 0 76 76" fill="none" xmlns="http://www.w3.org/2000/svg">
<rect width="76" height="76" rx="38" fill="#EEF1FB"/>
<path d="M52.5067 56.5601V24.1334C52.5067 23.0584 52.0797 22.0274 51.3195 21.2673C50.5594 20.5071 49.5284 20.0801 48.4534 20.0801H28.1867C27.1117 20.0801 26.0808 20.5071 25.3206 21.2673C24.5605 22.0274 24.1334 23.0584 24.1334 24.1334V56.5601M52.5067 56.5601H56.5601M52.5067 56.5601H42.3734M24.1334 56.5601H20.0801M24.1334 56.5601H34.2667M32.2401 28.1867H34.2667M32.2401 36.2934H34.2667M42.3734 28.1867H44.4001M42.3734 36.2934H44.4001M34.2667 56.5601V46.4267C34.2667 45.8892 34.4803 45.3737 34.8603 44.9937C35.2404 44.6136 35.7559 44.4001 36.2934 44.4001H40.3467C40.8842 44.4001 41.3997 44.6136 41.7798 44.9937C42.1599 45.3737 42.3734 45.8892 42.3734 46.4267V56.5601M34.2667 56.5601H42.3734" stroke="#5F6B7A" stroke-width="3" stroke-linecap="round" stroke-linejoin="round"/>
</svg>
