<svg width="76" height="76" viewBox="0 0 76 76" fill="none" xmlns="http://www.w3.org/2000/svg">
<rect width="76" height="76" rx="38" fill="#EEF1FB"/>
<path d="M43.9013 34.2667C45.8591 34.2667 47.448 35.8557 47.448 37.8134V44.4001H47.4399V44.9067C47.4399 45.3099 47.2797 45.6965 46.9947 45.9815C46.7096 46.2666 46.323 46.4267 45.9199 46.4267C45.5168 46.4267 45.1301 46.2666 44.8451 45.9815C44.56 45.6965 44.3999 45.3099 44.3999 44.9067V40.3467H44.408V37.8134C44.408 37.679 44.3546 37.5502 44.2596 37.4551C44.1646 37.3601 44.0357 37.3067 43.9013 37.3067H32.7506C32.6162 37.3067 32.4874 37.3601 32.3923 37.4551C32.2973 37.5502 32.2439 37.679 32.2439 37.8134V44.4001H32.2399V44.9067C32.2399 45.3099 32.0797 45.6965 31.7947 45.9815C31.5096 46.2666 31.123 46.4267 30.7199 46.4267C30.3168 46.4267 29.9301 46.2666 29.6451 45.9815C29.36 45.6965 29.1999 45.3099 29.1999 44.9067V40.3467H29.2039V37.8134C29.2039 35.8557 30.7908 34.2667 32.7506 34.2667H43.9013ZM55.5466 37.8134V44.9067C55.5466 45.3099 55.7067 45.6965 55.9918 45.9815C56.2768 46.2666 56.6634 46.4267 57.0666 46.4267C57.4697 46.4267 57.8563 46.2666 58.1414 45.9815C58.4264 45.6965 58.5866 45.3099 58.5866 44.9067V37.8134C58.5866 36.8728 58.2129 35.9707 57.5478 35.3055C56.8826 34.6404 55.9805 34.2667 55.0399 34.2667H48.1999C48.895 35.1078 49.349 36.1556 49.4524 37.3067H55.0399C55.1743 37.3067 55.3031 37.3601 55.3982 37.4551C55.4932 37.5502 55.5466 37.679 55.5466 37.8134ZM18.0532 44.9067C18.0532 45.3099 18.2134 45.6965 18.4984 45.9815C18.7835 46.2666 19.1701 46.4267 19.5732 46.4267C19.9764 46.4267 20.363 46.2666 20.648 45.9815C20.9331 45.6965 21.0932 45.3099 21.0932 44.9067V37.8134C21.0932 37.679 21.1466 37.5502 21.2416 37.4551C21.3366 37.3601 21.4655 37.3067 21.5999 37.3067H27.1996C27.3004 36.1902 27.737 35.1303 28.452 34.2667H21.5999C20.6593 34.2667 19.7571 34.6404 19.092 35.3055C18.4269 35.9707 18.0532 36.8728 18.0532 37.8134V44.9067ZM38.3199 20.0801C39.9324 20.0801 41.4789 20.7206 42.6191 21.8609C43.7593 23.0011 44.3999 24.5476 44.3999 26.1601C44.3999 27.7726 43.7593 29.3191 42.6191 30.4593C41.4789 31.5995 39.9324 32.2401 38.3199 32.2401C36.7074 32.2401 35.1609 31.5995 34.0207 30.4593C32.8805 29.3191 32.2399 27.7726 32.2399 26.1601C32.2399 24.5476 32.8805 23.0011 34.0207 21.8609C35.1609 20.7206 36.7074 20.0801 38.3199 20.0801ZM38.3199 23.1201C37.5136 23.1201 36.7404 23.4404 36.1703 24.0105C35.6002 24.5806 35.2799 25.3538 35.2799 26.1601C35.2799 26.9663 35.6002 27.7396 36.1703 28.3097C36.7404 28.8798 37.5136 29.2001 38.3199 29.2001C39.1261 29.2001 39.8994 28.8798 40.4695 28.3097C41.0396 27.7396 41.3599 26.9663 41.3599 26.1601C41.3599 25.3538 41.0396 24.5806 40.4695 24.0105C39.8994 23.4404 39.1261 23.1201 38.3199 23.1201ZM51.4932 22.1067C52.837 22.1067 54.1257 22.6406 55.0759 23.5907C56.0261 24.5409 56.5599 25.8296 56.5599 27.1734C56.5599 28.5172 56.0261 29.8059 55.0759 30.7561C54.1257 31.7063 52.837 32.2401 51.4932 32.2401C50.1495 32.2401 48.8607 31.7063 47.9105 30.7561C46.9604 29.8059 46.4266 28.5172 46.4266 27.1734C46.4266 25.8296 46.9604 24.5409 47.9105 23.5907C48.8607 22.6406 50.1495 22.1067 51.4932 22.1067ZM51.4932 25.1467C50.9557 25.1467 50.4402 25.3603 50.0602 25.7403C49.6801 26.1204 49.4666 26.6359 49.4666 27.1734C49.4666 27.7109 49.6801 28.2264 50.0602 28.6065C50.4402 28.9866 50.9557 29.2001 51.4932 29.2001C52.0307 29.2001 52.5462 28.9866 52.9263 28.6065C53.3064 28.2264 53.5199 27.7109 53.5199 27.1734C53.5199 26.6359 53.3064 26.1204 52.9263 25.7403C52.5462 25.3603 52.0307 25.1467 51.4932 25.1467ZM25.1466 22.1067C26.4903 22.1067 27.779 22.6406 28.7292 23.5907C29.6794 24.5409 30.2132 25.8296 30.2132 27.1734C30.2132 28.5172 29.6794 29.8059 28.7292 30.7561C27.779 31.7063 26.4903 32.2401 25.1466 32.2401C23.8028 32.2401 22.5141 31.7063 21.5639 30.7561C20.6137 29.8059 20.0799 28.5172 20.0799 27.1734C20.0799 25.8296 20.6137 24.5409 21.5639 23.5907C22.5141 22.6406 23.8028 22.1067 25.1466 22.1067ZM25.1466 25.1467C24.6091 25.1467 24.0936 25.3603 23.7135 25.7403C23.3334 26.1204 23.1199 26.6359 23.1199 27.1734C23.1199 27.7109 23.3334 28.2264 23.7135 28.6065C24.0936 28.9866 24.6091 29.2001 25.1466 29.2001C25.6841 29.2001 26.1996 28.9866 26.5796 28.6065C26.9597 28.2264 27.1732 27.7109 27.1732 27.1734C27.1732 26.6359 26.9597 26.1204 26.5796 25.7403C26.1996 25.3603 25.6841 25.1467 25.1466 25.1467ZM19.5732 48.4534C19.1701 48.4534 18.7835 48.6136 18.4984 48.8986C18.2134 49.1837 18.0532 49.5703 18.0532 49.9734V50.9867C18.0532 53.0024 18.8539 54.9355 20.2792 56.3608C21.7045 57.786 23.6376 58.5867 25.6532 58.5867H50.9866C53.0022 58.5867 54.9353 57.786 56.3606 56.3608C57.7858 54.9355 58.5866 53.0024 58.5866 50.9867V49.9734C58.5866 49.5703 58.4264 49.1837 58.1414 48.8986C57.8563 48.6136 57.4697 48.4534 57.0666 48.4534H19.5732ZM25.6532 55.5467C24.5316 55.5467 23.4493 55.1333 22.6133 54.3855C21.7773 53.6378 21.2462 52.6081 21.1216 51.4934H55.5182C55.3936 52.6081 54.8625 53.6378 54.0265 54.3855C53.1905 55.1333 52.1082 55.5467 50.9866 55.5467H25.6532Z" fill="#5F6B7A"/>
</svg>
