<svg width="157" height="44" viewBox="0 0 157 44" fill="none" xmlns="http://www.w3.org/2000/svg">
<path d="M0 24.4841H7.16086C13.4954 24.4841 18.6305 29.6193 18.6305 35.9538V43.1146H3C1.34314 43.1146 0 41.7715 0 40.1146V24.4841Z" fill="#4836C8"/>
<path d="M0 19.5159L-6.8323e-07 3.88539C-7.55653e-07 2.22853 1.34315 0.885387 3 0.885387L18.6305 0.885387L18.6305 8.04625C18.6305 14.3807 13.4954 19.5159 7.16086 19.5159L0 19.5159Z" fill="#4836C8"/>
<path d="M17.5607 23.4142C16.7796 22.6332 16.7796 21.3668 17.5607 20.5858L23.6634 14.4831C26.7876 11.3589 31.8529 11.3589 34.9771 14.4831L36.8371 16.3431C39.9613 19.4673 39.9613 24.5327 36.8371 27.6569L34.9771 29.5169C31.8529 32.6411 26.7876 32.6411 23.6634 29.5169L17.5607 23.4142Z" fill="#F9B912"/>
<path d="M59.4619 30.5C59.3006 29.972 59.1172 29.4293 58.9119 28.872C58.7212 28.3147 58.5306 27.7573 58.3399 27.2H52.3999C52.2092 27.7573 52.0112 28.3147 51.8059 28.872C51.6152 29.4293 51.4392 29.972 51.2779 30.5H47.7139C48.2859 28.8573 48.8286 27.3393 49.3419 25.946C49.8552 24.5527 50.3539 23.24 50.8379 22.008C51.3366 20.776 51.8206 19.61 52.2899 18.51C52.7739 17.3953 53.2726 16.31 53.7859 15.254H57.0639C57.5626 16.31 58.0539 17.3953 58.5379 18.51C59.0219 19.61 59.5059 20.776 59.9899 22.008C60.4886 23.24 60.9946 24.5527 61.5079 25.946C62.0212 27.3393 62.5639 28.8573 63.1359 30.5H59.4619ZM55.3479 18.708C55.2746 18.928 55.1646 19.2287 55.0179 19.61C54.8712 19.9913 54.7026 20.4313 54.5119 20.93C54.3212 21.4287 54.1086 21.9787 53.8739 22.58C53.6539 23.1813 53.4266 23.812 53.1919 24.472H57.5259C57.2912 23.812 57.0639 23.1813 56.8439 22.58C56.6239 21.9787 56.4112 21.4287 56.2059 20.93C56.0152 20.4313 55.8466 19.9913 55.6999 19.61C55.5532 19.2287 55.4359 18.928 55.3479 18.708ZM67.8374 30.5H64.5594V18.928H67.8374V30.5ZM68.1454 15.584C68.1454 16.1853 67.9474 16.662 67.5514 17.014C67.17 17.3513 66.7154 17.52 66.1874 17.52C65.6594 17.52 65.1974 17.3513 64.8014 17.014C64.42 16.662 64.2294 16.1853 64.2294 15.584C64.2294 14.9827 64.42 14.5133 64.8014 14.176C65.1974 13.824 65.6594 13.648 66.1874 13.648C66.7154 13.648 67.17 13.824 67.5514 14.176C67.9474 14.5133 68.1454 14.9827 68.1454 15.584ZM76.9467 24.362C76.9467 23.306 76.8074 22.558 76.5287 22.118C76.2647 21.678 75.8027 21.458 75.1427 21.458C74.9374 21.458 74.7247 21.4727 74.5047 21.502C74.2847 21.5167 74.0721 21.5387 73.8667 21.568V30.5H70.5887V19.324C70.8674 19.2507 71.1901 19.1773 71.5567 19.104C71.9381 19.016 72.3341 18.9427 72.7447 18.884C73.1701 18.8107 73.6027 18.7593 74.0427 18.73C74.4827 18.686 74.9154 18.664 75.3407 18.664C76.1767 18.664 76.8514 18.774 77.3647 18.994C77.8927 19.1993 78.3254 19.4487 78.6627 19.742C79.1321 19.4047 79.6674 19.1407 80.2687 18.95C80.8847 18.7593 81.4494 18.664 81.9627 18.664C82.8867 18.664 83.6421 18.796 84.2287 19.06C84.8301 19.3093 85.3067 19.6687 85.6587 20.138C86.0107 20.6073 86.2527 21.1647 86.3847 21.81C86.5167 22.4553 86.5827 23.174 86.5827 23.966V30.5H83.3047V24.362C83.3047 23.306 83.1654 22.558 82.8867 22.118C82.6227 21.678 82.1607 21.458 81.5007 21.458C81.3247 21.458 81.0754 21.502 80.7527 21.59C80.4447 21.678 80.1881 21.788 79.9827 21.92C80.0854 22.2573 80.1514 22.6167 80.1807 22.998C80.2101 23.3647 80.2247 23.7607 80.2247 24.186V30.5H76.9467V24.362ZM92.5074 30.5H89.2294V18.928H92.5074V30.5ZM92.8154 15.584C92.8154 16.1853 92.6174 16.662 92.2214 17.014C91.8401 17.3513 91.3854 17.52 90.8574 17.52C90.3294 17.52 89.8674 17.3513 89.4714 17.014C89.0901 16.662 88.8994 16.1853 88.8994 15.584C88.8994 14.9827 89.0901 14.5133 89.4714 14.176C89.8674 13.824 90.3294 13.648 90.8574 13.648C91.3854 13.648 91.8401 13.824 92.2214 14.176C92.6174 14.5133 92.8154 14.9827 92.8154 15.584ZM94.7088 24.802C94.7088 23.7753 94.8628 22.8807 95.1708 22.118C95.4935 21.3407 95.9115 20.6953 96.4248 20.182C96.9382 19.6687 97.5248 19.28 98.1848 19.016C98.8595 18.752 99.5488 18.62 100.253 18.62C101.895 18.62 103.193 19.126 104.147 20.138C105.1 21.1353 105.577 22.6093 105.577 24.56C105.577 24.7507 105.569 24.9633 105.555 25.198C105.54 25.418 105.525 25.616 105.511 25.792H98.0748C98.1482 26.4667 98.4635 27.002 99.0208 27.398C99.5782 27.794 100.326 27.992 101.265 27.992C101.866 27.992 102.453 27.9407 103.025 27.838C103.611 27.7207 104.088 27.5813 104.455 27.42L104.895 30.082C104.719 30.17 104.484 30.258 104.191 30.346C103.897 30.434 103.567 30.5073 103.201 30.566C102.849 30.6393 102.467 30.698 102.057 30.742C101.646 30.786 101.235 30.808 100.825 30.808C99.7835 30.808 98.8742 30.654 98.0968 30.346C97.3342 30.038 96.6962 29.62 96.1828 29.092C95.6842 28.5493 95.3102 27.9113 95.0608 27.178C94.8262 26.4447 94.7088 25.6527 94.7088 24.802ZM102.409 23.548C102.394 23.2693 102.343 22.998 102.255 22.734C102.181 22.47 102.057 22.2353 101.881 22.03C101.719 21.8247 101.507 21.656 101.243 21.524C100.993 21.392 100.678 21.326 100.297 21.326C99.9302 21.326 99.6148 21.392 99.3508 21.524C99.0868 21.6413 98.8668 21.8027 98.6908 22.008C98.5148 22.2133 98.3755 22.4553 98.2728 22.734C98.1848 22.998 98.1188 23.2693 98.0748 23.548H102.409ZM107.776 19.324C108.334 19.1627 109.052 19.016 109.932 18.884C110.812 18.7373 111.736 18.664 112.704 18.664C113.687 18.664 114.501 18.796 115.146 19.06C115.806 19.3093 116.327 19.6687 116.708 20.138C117.09 20.6073 117.361 21.1647 117.522 21.81C117.684 22.4553 117.764 23.174 117.764 23.966V30.5H114.486V24.362C114.486 23.306 114.347 22.558 114.068 22.118C113.79 21.678 113.269 21.458 112.506 21.458C112.272 21.458 112.022 21.4727 111.758 21.502C111.494 21.5167 111.26 21.5387 111.054 21.568V30.5H107.776V19.324ZM125.198 15.078C127.471 15.078 129.216 15.4813 130.434 16.288C131.651 17.08 132.26 18.3853 132.26 20.204C132.26 22.0373 131.644 23.3647 130.412 24.186C129.18 24.9927 127.42 25.396 125.132 25.396H124.054V30.5H120.622V15.474C121.37 15.3273 122.162 15.2247 122.998 15.166C123.834 15.1073 124.567 15.078 125.198 15.078ZM125.418 18.004C125.168 18.004 124.919 18.0113 124.67 18.026C124.435 18.0407 124.23 18.0553 124.054 18.07V22.47H125.132C126.32 22.47 127.214 22.3087 127.816 21.986C128.417 21.6633 128.718 21.062 128.718 20.182C128.718 19.7567 128.637 19.4047 128.476 19.126C128.329 18.8473 128.109 18.6273 127.816 18.466C127.537 18.29 127.192 18.1727 126.782 18.114C126.371 18.0407 125.916 18.004 125.418 18.004ZM138.222 28.212C138.545 28.212 138.853 28.2047 139.146 28.19C139.439 28.1753 139.674 28.1533 139.85 28.124V25.638C139.718 25.6087 139.52 25.5793 139.256 25.55C138.992 25.5207 138.75 25.506 138.53 25.506C138.222 25.506 137.929 25.528 137.65 25.572C137.386 25.6013 137.151 25.6673 136.946 25.77C136.741 25.8727 136.579 26.012 136.462 26.188C136.345 26.364 136.286 26.584 136.286 26.848C136.286 27.3613 136.455 27.7207 136.792 27.926C137.144 28.1167 137.621 28.212 138.222 28.212ZM137.958 18.62C138.926 18.62 139.733 18.73 140.378 18.95C141.023 19.17 141.537 19.4853 141.918 19.896C142.314 20.3067 142.593 20.8053 142.754 21.392C142.915 21.9787 142.996 22.6313 142.996 23.35V30.17C142.527 30.2727 141.874 30.39 141.038 30.522C140.202 30.6687 139.19 30.742 138.002 30.742C137.254 30.742 136.572 30.676 135.956 30.544C135.355 30.412 134.834 30.1993 134.394 29.906C133.954 29.598 133.617 29.202 133.382 28.718C133.147 28.234 133.03 27.64 133.03 26.936C133.03 26.2613 133.162 25.6893 133.426 25.22C133.705 24.7507 134.071 24.3767 134.526 24.098C134.981 23.8193 135.501 23.6213 136.088 23.504C136.675 23.372 137.283 23.306 137.914 23.306C138.339 23.306 138.713 23.328 139.036 23.372C139.373 23.4013 139.645 23.4453 139.85 23.504V23.196C139.85 22.6387 139.681 22.1913 139.344 21.854C139.007 21.5167 138.42 21.348 137.584 21.348C137.027 21.348 136.477 21.392 135.934 21.48C135.391 21.5533 134.922 21.6633 134.526 21.81L134.108 19.17C134.299 19.1113 134.533 19.0527 134.812 18.994C135.105 18.9207 135.421 18.862 135.758 18.818C136.095 18.7593 136.447 18.7153 136.814 18.686C137.195 18.642 137.577 18.62 137.958 18.62ZM155.625 18.928C154.965 21.1573 154.276 23.2473 153.557 25.198C152.838 27.1487 152.054 29.0407 151.203 30.874C150.895 31.534 150.587 32.0913 150.279 32.546C149.971 33.0153 149.634 33.3967 149.267 33.69C148.9 33.998 148.482 34.218 148.013 34.35C147.558 34.4967 147.023 34.57 146.407 34.57C145.894 34.57 145.417 34.5187 144.977 34.416C144.552 34.328 144.2 34.2253 143.921 34.108L144.493 31.49C144.83 31.6073 145.131 31.688 145.395 31.732C145.659 31.776 145.938 31.798 146.231 31.798C146.818 31.798 147.265 31.6367 147.573 31.314C147.896 31.006 148.167 30.5733 148.387 30.016C147.639 28.5493 146.891 26.9067 146.143 25.088C145.395 23.2547 144.691 21.2013 144.031 18.928H147.507C147.654 19.5 147.822 20.1233 148.013 20.798C148.218 21.458 148.431 22.1327 148.651 22.822C148.871 23.4967 149.091 24.1567 149.311 24.802C149.546 25.4473 149.766 26.034 149.971 26.562C150.162 26.034 150.36 25.4473 150.565 24.802C150.77 24.1567 150.968 23.4967 151.159 22.822C151.364 22.1327 151.555 21.458 151.731 20.798C151.922 20.1233 152.09 19.5 152.237 18.928H155.625Z" fill="black"/>
</svg>
