<svg width="37" height="36" viewBox="0 0 37 36" fill="none" xmlns="http://www.w3.org/2000/svg">
<path d="M0.808441 20.0691H6.77388C12.0509 20.0691 16.3288 24.347 16.3288 29.624V35.5894H3.30763C1.92737 35.5894 0.808441 34.4705 0.808441 33.0903V20.0691Z" fill="#4836C8"/>
<path d="M0.808441 15.9307L0.808441 2.9095C0.808441 1.52923 1.92736 0.410311 3.30763 0.410311L16.3288 0.41031L16.3288 6.37575C16.3288 11.6528 12.0509 15.9307 6.77388 15.9307L0.808441 15.9307Z" fill="#4836C8"/>
<path d="M15.4375 19.1779C14.7869 18.5272 14.7869 17.4723 15.4375 16.8216L20.5215 11.7377C23.1241 9.13507 27.3438 9.13507 29.9465 11.7377L31.496 13.2872C34.0986 15.8899 34.0986 20.1096 31.496 22.7123L29.9465 24.2618C27.3438 26.8644 23.1241 26.8644 20.5214 24.2618L15.4375 19.1779Z" fill="#F9B912"/>
</svg>
