<?xml version="1.0" standalone="no"?>
<!DOCTYPE svg PUBLIC "-//W3C//DTD SVG 20010904//EN"
 "http://www.w3.org/TR/2001/REC-SVG-20010904/DTD/svg10.dtd">
<svg version="1.0" xmlns="http://www.w3.org/2000/svg"
 width="512.000000pt" height="512.000000pt" viewBox="0 0 512.000000 512.000000"
 preserveAspectRatio="xMidYMid meet">

<g transform="translate(0.000000,512.000000) scale(0.100000,-0.100000)"
fill="#000000" stroke="none">
<path d="M338 5088 c-3 -29 -10 -37 -67 -65 -73 -37 -93 -53 -132 -107 l-29
-39 0 -962 c0 -919 1 -963 18 -978 17 -15 61 -17 438 -17 230 0 477 5 549 10
120 9 132 12 171 39 23 17 63 35 90 41 99 22 154 44 169 67 9 12 38 34 66 48
28 14 69 43 92 63 84 75 243 241 257 269 8 15 28 44 46 63 20 22 36 54 44 88
7 28 23 67 36 85 13 17 30 41 38 52 8 11 24 74 36 140 12 66 30 135 41 153 18
32 19 55 19 505 -1 390 -3 476 -15 497 -8 14 -14 37 -15 53 l0 27 -924 0 -925
0 -3 -32z"/>
<path d="M126 2258 c-14 -20 -16 -128 -16 -966 0 -825 2 -951 16 -997 9 -34
22 -56 33 -60 10 -3 44 -28 75 -55 34 -30 71 -52 94 -57 20 -4 437 -8 927 -8
720 0 897 3 928 13 l38 14 -3 481 -4 482 -26 95 c-15 52 -34 131 -43 175 -12
57 -24 88 -45 111 -15 18 -38 63 -50 101 -17 49 -33 78 -61 104 -22 20 -39 42
-39 50 0 7 -19 32 -42 56 -24 23 -56 55 -71 70 -15 15 -49 49 -75 76 -26 26
-52 47 -58 47 -7 0 -27 17 -45 37 -20 24 -57 48 -98 65 -35 15 -76 39 -90 52
-28 26 -61 37 -185 60 -43 9 -98 25 -121 36 -72 35 -145 40 -592 40 l-432 0
-15 -22z"/>
</g>
</svg>
