<?xml version="1.0" standalone="no"?>
<!DOCTYPE svg PUBLIC "-//W3C//DTD SVG 20010904//EN"
 "http://www.w3.org/TR/2001/REC-SVG-20010904/DTD/svg10.dtd">
<svg version="1.0" xmlns="http://www.w3.org/2000/svg"
 width="180.000000pt" height="180.000000pt" viewBox="0 0 180.000000 180.000000"
 preserveAspectRatio="xMidYMid meet">

<g transform="translate(0.000000,180.000000) scale(0.100000,-0.100000)"
fill="#000000" stroke="none">
<path d="M110 1784 c-8 -7 -27 -25 -42 -38 l-28 -25 0 -346 0 -345 199 0 c119
0 202 4 206 10 3 5 25 15 48 21 104 28 237 181 269 309 13 51 22 348 13 398
l-6 32 -322 -1 c-261 -1 -325 -3 -337 -15z"/>
<path d="M40 451 l0 -350 27 -26 c16 -14 37 -28 48 -31 11 -2 164 -3 340 -2
l320 3 3 155 c2 89 -2 180 -8 215 -18 93 -63 177 -129 244 -110 111 -177 133
-423 138 l-178 4 0 -350z"/>
</g>
</svg>
