<svg width="385" height="344" viewBox="0 0 385 344" fill="none" xmlns="http://www.w3.org/2000/svg">
<g clip-path="url(#clip0_5104_27896)">
<rect width="385" height="344" fill="white"/>
<path d="M0 192.234H120.625C151.102 192.234 175.81 216.941 175.81 247.419V344H14.4342C6.46241 344 0 337.538 0 329.566V192.234Z" fill="#4836C8"/>
<path d="M0 151.766L-6.93664e-06 14.4341C-7.3393e-06 6.4623 6.46241 -0.000122315 14.4342 -0.000122616L175.81 -0.000128721L175.81 96.5811C175.81 127.059 151.102 151.766 120.625 151.766L0 151.766Z" fill="#4836C8"/>
<path d="M159.652 178.286C155.629 174.813 155.629 169.182 159.652 165.71L247.547 89.8347C263.639 75.9436 289.729 75.9436 305.821 89.8347L371.863 146.846C387.955 160.737 387.955 183.259 371.863 197.15L305.82 254.16C289.729 268.052 263.639 268.052 247.547 254.16L159.652 178.286Z" fill="#F9B912"/>
</g>
<defs>
<clipPath id="clip0_5104_27896">
<rect width="385" height="344" fill="white"/>
</clipPath>
</defs>
</svg>
