<svg width="132" height="36" viewBox="0 0 132 36" fill="none" xmlns="http://www.w3.org/2000/svg">
<path d="M0.717285 20.0691H6.68272C11.9598 20.0691 16.2376 24.347 16.2376 29.624V35.5894H3.21647C1.83621 35.5894 0.717285 34.4705 0.717285 33.0903V20.0691Z" fill="#4836C8"/>
<path d="M0.717285 15.9307L0.717285 2.9095C0.717285 1.52923 1.83621 0.410311 3.21647 0.410311L16.2376 0.41031L16.2376 6.37575C16.2376 11.6528 11.9598 15.9307 6.68272 15.9307L0.717285 15.9307Z" fill="#4836C8"/>
<path d="M15.3464 19.1779C14.6957 18.5272 14.6957 17.4723 15.3464 16.8216L20.4303 11.7377C23.033 9.13507 27.2527 9.13507 29.8553 11.7377L31.4049 13.2872C34.0075 15.8899 34.0075 20.1096 31.4049 22.7123L29.8553 24.2618C27.2527 26.8644 23.033 26.8644 20.4303 24.2618L15.3464 19.1779Z" fill="#F9B912"/>
<path d="M50.2528 24.5C50.1184 24.0601 49.9657 23.6081 49.7946 23.1438C49.6358 22.6795 49.4769 22.2152 49.3181 21.7509H44.3697C44.2109 22.2152 44.0459 22.6795 43.8749 23.1438C43.716 23.6081 43.5694 24.0601 43.435 24.5H40.466C40.9425 23.1316 41.3946 21.867 41.8222 20.7062C42.2499 19.5455 42.6653 18.452 43.0685 17.4256C43.4839 16.3993 43.8871 15.428 44.2781 14.5116C44.6813 13.583 45.0967 12.6788 45.5243 11.7991H48.2551C48.6705 12.6788 49.0799 13.583 49.4831 14.5116C49.8863 15.428 50.2895 16.3993 50.6927 17.4256C51.1081 18.452 51.5296 19.5455 51.9573 20.7062C52.3849 21.867 52.837 23.1316 53.3135 24.5H50.2528ZM46.8256 14.6765C46.7645 14.8598 46.6729 15.1103 46.5507 15.428C46.4285 15.7456 46.288 16.1122 46.1291 16.5276C45.9703 16.943 45.7931 17.4012 45.5977 17.9021C45.4144 18.4031 45.225 18.9285 45.0295 19.4783H48.64C48.4445 18.9285 48.2551 18.4031 48.0718 17.9021C47.8886 17.4012 47.7114 16.943 47.5404 16.5276C47.3815 16.1122 47.241 15.7456 47.1188 15.428C46.9966 15.1103 46.8989 14.8598 46.8256 14.6765ZM57.2301 24.5H54.4993V14.8598H57.2301V24.5ZM57.4867 12.074C57.4867 12.575 57.3217 12.9721 56.9918 13.2653C56.6742 13.5463 56.2954 13.6869 55.8555 13.6869C55.4157 13.6869 55.0308 13.5463 54.7009 13.2653C54.3832 12.9721 54.2244 12.575 54.2244 12.074C54.2244 11.5731 54.3832 11.1821 54.7009 10.9011C55.0308 10.6079 55.4157 10.4612 55.8555 10.4612C56.2954 10.4612 56.6742 10.6079 56.9918 10.9011C57.3217 11.1821 57.4867 11.5731 57.4867 12.074ZM64.8188 19.3867C64.8188 18.5069 64.7027 17.8838 64.4706 17.5173C64.2506 17.1507 63.8657 16.9675 63.3159 16.9675C63.1449 16.9675 62.9677 16.9797 62.7844 17.0041C62.6012 17.0163 62.424 17.0347 62.2529 17.0591V24.5H59.5222V15.1897C59.7543 15.1286 60.0231 15.0675 60.3286 15.0064C60.6462 14.9331 60.9761 14.872 61.3182 14.8231C61.6726 14.7621 62.033 14.7193 62.3996 14.6949C62.7661 14.6582 63.1265 14.6399 63.4809 14.6399C64.1773 14.6399 64.7394 14.7315 65.167 14.9148C65.6068 15.0858 65.9673 15.2936 66.2483 15.5379C66.6393 15.2569 67.0853 15.037 67.5862 14.8781C68.0994 14.7193 68.5698 14.6399 68.9974 14.6399C69.7672 14.6399 70.3964 14.7498 70.8851 14.9698C71.3861 15.1775 71.7832 15.4768 72.0764 15.8678C72.3696 16.2588 72.5712 16.7231 72.6812 17.2607C72.7912 17.7983 72.8462 18.397 72.8462 19.0568V24.5H70.1154V19.3867C70.1154 18.5069 69.9993 17.8838 69.7672 17.5173C69.5472 17.1507 69.1624 16.9675 68.6125 16.9675C68.4659 16.9675 68.2582 17.0041 67.9894 17.0774C67.7328 17.1507 67.519 17.2424 67.3479 17.3523C67.4335 17.6333 67.4885 17.9327 67.5129 18.2504C67.5373 18.5558 67.5495 18.8857 67.5495 19.24V24.5H64.8188V19.3867ZM77.7818 24.5H75.051V14.8598H77.7818V24.5ZM78.0384 12.074C78.0384 12.575 77.8734 12.9721 77.5436 13.2653C77.2259 13.5463 76.8471 13.6869 76.4073 13.6869C75.9674 13.6869 75.5825 13.5463 75.2526 13.2653C74.935 12.9721 74.7761 12.575 74.7761 12.074C74.7761 11.5731 74.935 11.1821 75.2526 10.9011C75.5825 10.6079 75.9674 10.4612 76.4073 10.4612C76.8471 10.4612 77.2259 10.6079 77.5436 10.9011C77.8734 11.1821 78.0384 11.5731 78.0384 12.074ZM79.6157 19.7532C79.6157 18.8979 79.744 18.1526 80.0006 17.5173C80.2694 16.8697 80.6176 16.3321 81.0452 15.9045C81.4729 15.4768 81.9616 15.153 82.5114 14.9331C83.0735 14.7132 83.6477 14.6032 84.2342 14.6032C85.6026 14.6032 86.6839 15.0247 87.4781 15.8678C88.2723 16.6986 88.6694 17.9266 88.6694 19.5516C88.6694 19.7104 88.6633 19.8876 88.6511 20.0831C88.6389 20.2664 88.6266 20.4313 88.6144 20.5779H82.4198C82.4809 21.14 82.7436 21.5859 83.2079 21.9158C83.6721 22.2457 84.2953 22.4107 85.0772 22.4107C85.5782 22.4107 86.0669 22.3679 86.5434 22.2824C87.0322 22.1846 87.4293 22.0686 87.7347 21.9342L88.1013 24.1518C87.9546 24.2251 87.7592 24.2984 87.5148 24.3717C87.2704 24.445 86.9955 24.5061 86.6901 24.555C86.3968 24.6161 86.0791 24.6649 85.737 24.7016C85.3949 24.7383 85.0528 24.7566 84.7107 24.7566C83.8432 24.7566 83.0857 24.6283 82.4381 24.3717C81.8028 24.1151 81.2713 23.7669 80.8436 23.327C80.4282 22.875 80.1166 22.3435 79.9089 21.7326C79.7134 21.1217 79.6157 20.4619 79.6157 19.7532ZM86.0303 18.7086C86.0181 18.4764 85.9753 18.2504 85.902 18.0304C85.8409 17.8105 85.737 17.615 85.5904 17.444C85.456 17.2729 85.2788 17.1324 85.0589 17.0224C84.8512 16.9125 84.5885 16.8575 84.2708 16.8575C83.9654 16.8575 83.7027 16.9125 83.4828 17.0224C83.2628 17.1202 83.0796 17.2546 82.9329 17.4256C82.7863 17.5967 82.6703 17.7983 82.5847 18.0304C82.5114 18.2504 82.4564 18.4764 82.4198 18.7086H86.0303ZM90.5019 15.1897C90.9662 15.0553 91.5648 14.9331 92.2979 14.8231C93.031 14.701 93.8008 14.6399 94.6072 14.6399C95.4258 14.6399 96.1039 14.7498 96.6415 14.9698C97.1914 15.1775 97.6251 15.4768 97.9428 15.8678C98.2604 16.2588 98.4865 16.7231 98.6209 17.2607C98.7553 17.7983 98.8225 18.397 98.8225 19.0568V24.5H96.0917V19.3867C96.0917 18.5069 95.9756 17.8838 95.7435 17.5173C95.5113 17.1507 95.0776 16.9675 94.4422 16.9675C94.2468 16.9675 94.039 16.9797 93.8191 17.0041C93.5992 17.0163 93.4037 17.0347 93.2326 17.0591V24.5H90.5019V15.1897ZM105.015 11.6525C106.909 11.6525 108.363 11.9885 109.377 12.6605C110.391 13.3203 110.898 14.4077 110.898 15.9228C110.898 17.4501 110.385 18.5558 109.358 19.24C108.332 19.912 106.866 20.248 104.96 20.248H104.062V24.5H101.203V11.9824C101.826 11.8602 102.486 11.7747 103.182 11.7258C103.878 11.6769 104.489 11.6525 105.015 11.6525ZM105.198 14.0901C104.99 14.0901 104.783 14.0962 104.575 14.1084C104.379 14.1206 104.208 14.1328 104.062 14.145V17.8105H104.96C105.949 17.8105 106.695 17.6761 107.196 17.4073C107.697 17.1385 107.947 16.6376 107.947 15.9045C107.947 15.5501 107.88 15.2569 107.745 15.0247C107.623 14.7926 107.44 14.6093 107.196 14.4749C106.964 14.3283 106.676 14.2306 106.334 14.1817C105.992 14.1206 105.613 14.0901 105.198 14.0901ZM115.865 22.594C116.134 22.594 116.39 22.5878 116.635 22.5756C116.879 22.5634 117.075 22.5451 117.221 22.5206V20.4497C117.111 20.4252 116.946 20.4008 116.726 20.3763C116.506 20.3519 116.305 20.3397 116.122 20.3397C115.865 20.3397 115.621 20.358 115.388 20.3947C115.169 20.4191 114.973 20.4741 114.802 20.5596C114.631 20.6451 114.496 20.7612 114.399 20.9078C114.301 21.0545 114.252 21.2377 114.252 21.4577C114.252 21.8853 114.393 22.1846 114.674 22.3557C114.967 22.5145 115.364 22.594 115.865 22.594ZM115.645 14.6032C116.451 14.6032 117.123 14.6949 117.661 14.8781C118.199 15.0614 118.626 15.3241 118.944 15.6662C119.274 16.0083 119.506 16.4237 119.64 16.9125C119.775 17.4012 119.842 17.9449 119.842 18.5436V24.2251C119.451 24.3106 118.907 24.4084 118.211 24.5183C117.514 24.6405 116.671 24.7016 115.682 24.7016C115.059 24.7016 114.49 24.6466 113.977 24.5367C113.476 24.4267 113.043 24.2495 112.676 24.0052C112.309 23.7486 112.028 23.4187 111.833 23.0155C111.637 22.6123 111.54 22.1174 111.54 21.531C111.54 20.9689 111.65 20.4924 111.87 20.1014C112.102 19.7104 112.407 19.3989 112.786 19.1667C113.165 18.9346 113.598 18.7696 114.087 18.6719C114.576 18.5619 115.083 18.5069 115.608 18.5069C115.963 18.5069 116.274 18.5253 116.543 18.5619C116.824 18.5864 117.05 18.623 117.221 18.6719V18.4153C117.221 17.951 117.081 17.5784 116.8 17.2973C116.519 17.0163 116.03 16.8758 115.333 16.8758C114.869 16.8758 114.411 16.9125 113.959 16.9858C113.507 17.0469 113.116 17.1385 112.786 17.2607L112.438 15.0614C112.597 15.0125 112.792 14.9637 113.024 14.9148C113.269 14.8537 113.531 14.8048 113.812 14.7682C114.093 14.7193 114.387 14.6826 114.692 14.6582C115.01 14.6215 115.327 14.6032 115.645 14.6032ZM130.363 14.8598C129.813 16.717 129.239 18.4581 128.64 20.0831C128.041 21.7081 127.387 23.2843 126.679 24.8116C126.422 25.3614 126.166 25.8257 125.909 26.2044C125.652 26.5954 125.371 26.9131 125.066 27.1575C124.761 27.4141 124.412 27.5973 124.021 27.7073C123.643 27.8295 123.197 27.8906 122.683 27.8906C122.256 27.8906 121.859 27.8478 121.492 27.7623C121.138 27.689 120.845 27.6034 120.612 27.5057L121.089 25.3247C121.37 25.4225 121.62 25.4897 121.84 25.5263C122.06 25.563 122.292 25.5813 122.537 25.5813C123.026 25.5813 123.398 25.4469 123.655 25.1781C123.924 24.9215 124.15 24.5611 124.333 24.0968C123.71 22.875 123.087 21.5065 122.464 19.9915C121.84 18.4642 121.254 16.7536 120.704 14.8598H123.6C123.722 15.3363 123.862 15.8556 124.021 16.4176C124.192 16.9674 124.37 17.5295 124.553 18.1037C124.736 18.6658 124.919 19.2156 125.103 19.7532C125.298 20.2908 125.481 20.7795 125.652 21.2194C125.811 20.7795 125.976 20.2908 126.147 19.7532C126.318 19.2156 126.483 18.6658 126.642 18.1037C126.813 17.5295 126.972 16.9674 127.119 16.4176C127.277 15.8556 127.418 15.3363 127.54 14.8598H130.363Z" fill="black"/>
</svg>
