<svg width="60" height="60" viewBox="0 0 60 60" fill="none" xmlns="http://www.w3.org/2000/svg">
<path d="M40.7812 28.125H31.875V19.2188C31.875 18.9609 31.6641 18.75 31.4062 18.75H28.5938C28.3359 18.75 28.125 18.9609 28.125 19.2188V28.125H19.2188C18.9609 28.125 18.75 28.3359 18.75 28.5938V31.4062C18.75 31.6641 18.9609 31.875 19.2188 31.875H28.125V40.7812C28.125 41.0391 28.3359 41.25 28.5938 41.25H31.4062C31.6641 41.25 31.875 41.0391 31.875 40.7812V31.875H40.7812C41.0391 31.875 41.25 31.6641 41.25 31.4062V28.5938C41.25 28.3359 41.0391 28.125 40.7812 28.125Z" fill="#5F6B7A"/>
<path d="M30 3.75C15.5039 3.75 3.75 15.5039 3.75 30C3.75 44.4961 15.5039 56.25 30 56.25C44.4961 56.25 56.25 44.4961 56.25 30C56.25 15.5039 44.4961 3.75 30 3.75ZM30 51.7969C17.9648 51.7969 8.20313 42.0352 8.20313 30C8.20313 17.9648 17.9648 8.20313 30 8.20313C42.0352 8.20313 51.7969 17.9648 51.7969 30C51.7969 42.0352 42.0352 51.7969 30 51.7969Z" fill="#5F6B7A"/>
</svg>
