<svg width="20" height="18" viewBox="0 0 20 18" fill="none" xmlns="http://www.w3.org/2000/svg">
<path d="M19.7503 16.875C19.7503 17.107 19.6713 17.3296 19.5306 17.4937C19.39 17.6578 19.1992 17.75 19.0003 17.75C18.8014 17.75 18.6106 17.6578 18.47 17.4937C18.3293 17.3296 18.2503 17.107 18.2503 16.875C18.2478 14.3231 17.3778 11.8767 15.8312 10.0723C14.2846 8.26785 12.1876 7.25286 10.0003 7.24997H2.80969L6.03469 11.0015C6.17552 11.1674 6.25453 11.3915 6.25453 11.625C6.25453 11.8585 6.17552 12.0825 6.03469 12.2484C5.89133 12.4101 5.69972 12.5005 5.50031 12.5005C5.3009 12.5005 5.10929 12.4101 4.96594 12.2484L0.465938 6.9984C0.325101 6.83251 0.246094 6.60846 0.246094 6.37497C0.246094 6.14148 0.325101 5.91742 0.465938 5.75153L4.96594 0.501529C5.11166 0.361999 5.29666 0.290694 5.48495 0.301482C5.67323 0.312271 5.85135 0.404383 5.98465 0.559901C6.11796 0.715419 6.19691 0.923223 6.20616 1.14289C6.2154 1.36256 6.15428 1.5784 6.03469 1.7484L2.80969 5.49997H10.0003C12.5847 5.50575 15.0617 6.70604 16.8891 8.83801C18.7165 10.97 19.7454 13.8599 19.7503 16.875Z" fill="#6246D5"/>
</svg>
