<svg width="76" height="76" viewBox="0 0 76 76" fill="none" xmlns="http://www.w3.org/2000/svg">
<rect width="76" height="76" rx="38" fill="#EEF1FB"/>
<path fill-rule="evenodd" clip-rule="evenodd" d="M38.3193 19.9573C38.2254 19.9271 38.1244 19.9271 38.0305 19.9573L22.4961 25.0037C22.401 25.0325 22.3174 25.0907 22.2574 25.1698C22.1973 25.249 22.1638 25.3451 22.1617 25.4445V34.9597C22.1617 45.2349 28.3481 52.8197 38.0457 56.4829C38.1292 56.5131 38.2206 56.5131 38.3041 56.4829C48.0017 52.8197 54.1881 45.2349 54.1881 34.9597V25.4445C54.1859 25.3451 54.1524 25.249 54.0924 25.1698C54.0323 25.0907 53.9488 25.0325 53.8537 25.0037L38.3193 19.9573ZM37.1641 17.2669C37.8212 17.0543 38.5286 17.0543 39.1857 17.2669L54.7201 22.3133C55.3818 22.5281 55.9586 22.9466 56.3681 23.509C56.7776 24.0714 56.9988 24.7488 57.0001 25.4445V34.9597C57.0001 46.6181 49.9017 55.1149 39.2921 59.1277C38.5593 59.3861 37.7601 59.3861 37.0273 59.1277C26.4481 55.0693 19.3345 46.5725 19.3345 34.9597V25.4445C19.3357 24.7488 19.557 24.0714 19.9665 23.509C20.376 22.9466 20.9528 22.5281 21.6145 22.3133L37.1641 17.2669ZM40.0521 38.1669C40.6178 37.8421 41.0891 37.3755 41.4196 36.8131C41.7501 36.2508 41.9284 35.612 41.9369 34.9597C41.9696 34.4456 41.8965 33.9302 41.7223 33.4453C41.548 32.9605 41.2762 32.5166 40.9237 32.1409C40.5711 31.7652 40.1453 31.4658 39.6726 31.2611C39.1998 31.0564 38.6901 30.9508 38.1749 30.9508C37.6597 30.9508 37.15 31.0564 36.6772 31.2611C36.2044 31.4658 35.7786 31.7652 35.4261 32.1409C35.0735 32.5166 34.8017 32.9605 34.6275 33.4453C34.4532 33.9302 34.3802 34.4456 34.4129 34.9597C34.4134 35.6197 34.5879 36.2679 34.9188 36.839C35.2497 37.4101 35.7253 37.8838 36.2977 38.2125V43.4261C36.2742 43.6868 36.3053 43.9496 36.3889 44.1976C36.4726 44.4456 36.607 44.6735 36.7836 44.8668C36.9602 45.06 37.1751 45.2143 37.4147 45.3199C37.6542 45.4255 37.9131 45.48 38.1749 45.48C38.4366 45.48 38.6955 45.4255 38.9351 45.3199C39.1746 45.2143 39.3895 45.06 39.5661 44.8668C39.7427 44.6735 39.8771 44.4456 39.9608 44.1976C40.0445 43.9496 40.0756 43.6868 40.0521 43.4261V38.1669Z" fill="#57606A"/>
</svg>
