<svg width="76" height="76" viewBox="0 0 76 76" fill="none" xmlns="http://www.w3.org/2000/svg">
<rect width="76" height="76" rx="38" fill="#EEF1FB"/>
<path d="M40.6001 20.0801C37.6665 20.0801 35.2801 22.4665 35.2801 25.4001C35.2801 28.3337 37.6665 30.7201 40.6001 30.7201C43.5337 30.7201 45.9201 28.3337 45.9201 25.4001C45.9201 22.4665 43.5337 20.0801 40.6001 20.0801ZM40.6001 23.1201C41.8572 23.1201 42.8801 24.143 42.8801 25.4001C42.8801 26.6571 41.8572 27.6801 40.6001 27.6801C39.3431 27.6801 38.3201 26.6571 38.3201 25.4001C38.3201 24.143 39.3431 23.1201 40.6001 23.1201ZM33.9973 32.2401C33.1782 32.2395 32.377 32.4799 31.6935 32.9312C31.01 33.3826 30.4743 34.025 30.1532 34.7785L27.1633 41.7492C26.3745 43.5914 26.8654 45.7058 28.4781 47.0814L35.1935 52.0001H24.6401V55.0401H37.5358C38.0161 55.0425 38.4847 54.8926 38.8744 54.6118C39.264 54.3309 39.5545 53.9338 39.704 53.4774C39.8535 53.021 39.8544 52.5289 39.7065 52.072C39.5587 51.615 39.2696 51.2168 38.881 50.9346L30.3675 44.6995C30.1205 44.4902 29.9473 44.207 29.8734 43.8917C29.7995 43.5765 29.8288 43.2458 29.9571 42.9485L32.9469 35.9747C33.2555 35.2542 34.321 35.0779 34.8469 35.651L38.5451 41.7127L38.6561 41.8708C38.8926 42.1669 39.1891 42.4096 39.526 42.5831C39.863 42.7567 40.2327 42.857 40.6112 42.8777C40.9896 42.8984 41.3681 42.8389 41.7219 42.7031C42.0757 42.5673 42.3969 42.3582 42.6643 42.0897L48.6242 34.7162L46.2591 32.804L40.7993 39.5695L37.3793 33.9683L37.2698 33.8102C36.8779 33.3188 36.38 32.9224 35.8133 32.6505C35.2466 32.3786 34.6258 32.2383 33.9973 32.2401Z" fill="#5F6B7A"/>
</svg>
