<svg width="104" height="104" viewBox="0 0 104 104" fill="none" xmlns="http://www.w3.org/2000/svg">
<rect width="104" height="104" rx="52" fill="#EEF1FB"/>
<path fill-rule="evenodd" clip-rule="evenodd" d="M43.5075 75.0717C47.0006 70.6049 51.3021 69.3872 55.7591 67.7107C63.4072 64.8343 61.6234 66.3929 63.966 59.1136L69.4596 40.3876C69.8214 39.1438 71.5624 35.3315 70.9441 34.2243L56.7093 48.5859C56.8265 49.8853 59.5618 53.751 56.0463 57.2126C53.5759 59.6458 49.862 59.8383 47.3284 57.5773C47.1572 57.4245 46.9971 57.2656 46.8456 57.1023C46.6823 56.9508 46.5234 56.7907 46.3706 56.6194C44.1089 54.0852 44.3021 50.372 46.7356 47.9019C50.1969 44.3867 54.0629 47.1217 55.3616 47.2383L69.7229 33.0034C68.6164 32.3858 64.8041 34.1268 63.5607 34.4886L44.8339 39.9815C37.5556 42.3245 39.1139 40.541 36.2368 48.1885C34.5607 52.6457 33.343 56.947 28.8759 60.44L43.5075 75.0717ZM93.8063 47.8343C95.207 49.235 95.207 51.5059 93.8063 52.9069C92.4052 54.3076 90.1347 54.3076 88.7337 52.9069C87.3326 51.5062 87.3326 49.2353 88.7337 47.8343C90.1347 46.4332 92.4052 46.4332 93.8063 47.8343ZM13.2375 48.2336C14.2268 49.2226 14.2261 50.8257 13.2368 51.815C12.2479 52.8039 10.6454 52.8039 9.65611 51.815C8.66714 50.826 8.6665 49.2226 9.65548 48.2339C10.6445 47.245 12.2485 47.245 13.2371 48.2339L13.2375 48.2336ZM58.7346 88.6858C59.6546 89.6055 59.6546 91.0961 58.7352 92.0155C57.8152 92.9352 56.3249 92.9352 55.4048 92.0155C54.4857 91.0964 54.4857 89.6058 55.4055 88.6861C56.3246 87.7667 57.8152 87.7667 58.7342 88.6861L58.7346 88.6858ZM58.1271 12.4109C58.8277 13.1114 58.8283 14.2468 58.1278 14.947C57.4276 15.6475 56.2915 15.6475 55.591 14.947C54.8911 14.2471 54.8911 13.1111 55.5916 12.4109C56.2921 11.7104 57.4276 11.711 58.1271 12.4109ZM22.435 81.4662C23.4853 82.5165 25.1878 82.5165 26.2384 81.4662C27.0695 80.6351 27.2433 79.3952 26.7594 78.3938L35.9306 69.2226L34.7259 68.0183L25.5706 77.1739C24.5581 76.6516 23.2835 76.8148 22.435 77.6634C21.3847 78.7137 21.3847 80.4162 22.435 81.4668V81.4662ZM23.3522 80.549C23.8957 81.0926 24.778 81.0932 25.3215 80.5497C25.8657 80.0054 25.8651 79.1232 25.3215 78.5796C24.778 78.0361 23.8954 78.0351 23.3512 78.5796C22.8076 79.1232 22.8083 80.0054 23.3518 80.5493L23.3522 80.549ZM20.667 90.9582C21.7173 92.0085 23.4208 92.0091 24.4711 90.9589C25.2786 90.1513 25.4651 88.959 25.0318 87.9732L31.4492 81.5558L38.7164 79.6086L39.0999 79.3898L42.6596 75.8303L41.4549 74.6256L38.0537 78.0268L30.7871 79.9746L30.4037 80.1935L23.8868 86.71C22.8623 86.1337 21.54 86.2818 20.6673 87.1545C19.617 88.2048 19.617 89.9073 20.6673 90.9579L20.667 90.9582ZM21.5842 90.041C22.1284 90.5853 23.01 90.5853 23.5539 90.0417C24.0981 89.4975 24.0981 88.6156 23.5539 88.0714C23.0103 87.5278 22.1284 87.5278 21.5842 88.072C21.0406 88.6156 21.0406 89.4975 21.5842 90.041ZM12.7492 83.0407C13.7995 84.091 15.5029 84.0916 16.5532 83.0413C17.3528 82.2417 17.5435 81.0643 17.1263 80.0842L23.7099 73.5007L23.9288 73.1172L25.8762 65.85L29.2774 62.4488L28.0731 61.2441L24.5133 64.8038L24.2944 65.1873L22.3473 72.4548L15.9944 78.8081C14.966 78.2149 13.6295 78.3579 12.7495 79.2379C11.6992 80.2882 11.6992 81.991 12.7495 83.0413L12.7492 83.0407ZM13.6664 82.1235C14.2106 82.6677 15.0922 82.6677 15.636 82.1241C16.1803 81.5799 16.1803 80.698 15.636 80.1538C15.0925 79.6102 14.2106 79.6102 13.6664 80.1544C13.1228 80.698 13.1228 81.5799 13.6664 82.1235ZM50.5149 78.2108C51.0108 78.7067 51.2844 79.3405 51.3368 79.9889C51.4184 79.9737 51.5036 79.9679 51.5903 79.9727C55.7581 80.2081 59.8783 79.5499 63.6941 78.0926C67.5054 76.6392 71.0159 74.3855 73.9721 71.4296C79.6956 65.7064 82.5574 58.2044 82.5574 50.703C82.5574 43.2017 79.6956 35.6997 73.9721 29.9764C68.2488 24.2532 60.7468 21.3914 53.2455 21.3914C45.7444 21.3914 38.2424 24.2529 32.5189 29.9764C29.5631 32.9323 27.3093 36.4434 25.8556 40.2544C24.4145 44.0293 23.7544 48.1015 23.9685 52.2226C24.445 52.3446 24.8958 52.5917 25.2685 52.9644C26.3769 54.0728 26.3766 55.8703 25.2685 56.9787C24.1594 58.0878 22.3619 58.0878 21.2535 56.9794C20.1451 55.871 20.1451 54.0734 21.2541 52.9644C21.439 52.7795 21.6433 52.6254 21.8603 52.5025L21.8584 52.4751C21.6061 48.0055 22.3127 43.5867 23.8735 39.4955C25.4365 35.3995 27.8513 31.6338 31.0136 28.4715C37.1527 22.3321 45.1983 19.2629 53.2452 19.2632C61.2914 19.2626 69.3376 22.3324 75.4767 28.4715C81.6158 34.6106 84.6856 42.6572 84.685 50.703C84.685 58.7499 81.6158 66.7955 75.4767 72.9346C72.3143 76.0969 68.5487 78.5117 64.4521 80.0741C60.3608 81.6349 55.9427 82.3421 51.4724 82.0892C51.23 82.0758 51.0115 81.9818 50.8405 81.835C50.7452 81.972 50.6366 82.1029 50.5143 82.2252C49.4052 83.3342 47.6077 83.3342 46.4993 82.2258C45.3902 81.1167 45.3912 79.3199 46.4999 78.2108C47.6083 77.1024 49.4052 77.1017 50.5143 78.2108H50.5149ZM49.5472 79.1785C50.121 79.7526 50.121 80.6831 49.5472 81.2568C48.9725 81.8316 48.042 81.8312 47.4682 81.2575C46.8945 80.6834 46.8938 79.7526 47.4682 79.1779C48.042 78.6041 48.9731 78.6044 49.5472 79.1785ZM24.3008 53.9324C24.8745 54.5061 24.8745 55.4367 24.3008 56.0107C23.7261 56.5854 22.7959 56.5854 22.2218 56.0114C21.6481 55.4373 21.6477 54.5071 22.2224 53.9324C22.7965 53.3586 23.7267 53.3586 24.3008 53.9324Z" fill="url(#paint0_linear_3679_21602)" fill-opacity="0.890196"/>
<defs>
<linearGradient id="paint0_linear_3679_21602" x1="12.1271" y1="78.8191" x2="128.158" y2="46.4252" gradientUnits="userSpaceOnUse">
<stop stop-color="#5A8FAF"/>
<stop offset="0.560784" stop-color="#47AD71"/>
<stop offset="1" stop-color="#33CC33"/>
</linearGradient>
</defs>
</svg>
